<?xml version="1.0" encoding="utf-8"?>
<!-- Generator: Adobe Illustrator 28.1.0, SVG Export Plug-In . SVG Version: 6.00 Build 0)  -->
<svg version="1.1" id="Layer_1" xmlns="http://www.w3.org/2000/svg" xmlns:xlink="http://www.w3.org/1999/xlink" x="0px" y="0px"
	 viewBox="0 0 1080 1080" style="enable-background:new 0 0 1080 1080;" xml:space="preserve" width="150" height="150">
<style type="text/css">
	.st0{fill:#009D90;}
	.st1{fill:#27AAE1;}
	.st2{fill:#027265;}
	.st3{fill:#FFDE17;}
	.st4{fill:#FFFFFF;}
	.st5{fill:none;}
	.st6{fill:#414042;}
	.st7{font-family:'Montserrat-Regular';}
	.st8{font-size:48px;}
</style>
<g>
	<g>
		<path class="st0" d="M525.07,563.02c13.63-7.49,35.3-16.02,50.8-11.44c8.41,2.54,13.26,10.43,10.39,18.99
			c-3.89,12.21-22.79,22.09-34.24,26.53c-11.96,4.31-28.96,7.01-37.95-4.53c-10.63-14.52-1.93-40.91,6.01-55.08
			c13.83-25.78,32.44-48.9,53.93-68.69c1.14-1.04,2.36-1.99,3.88-2.58c2.03-0.78,4.3,0.24,5.08,2.27c1.06,2.76-1.34,5.18-3.2,6.78
			c-21.35,18.7-41.53,39.57-55.39,64.54c-5.87,10.09-9.77,21.79-9.64,33.48c0.01,7.68,2.5,16.6,10.45,19.16
			c7.82,2.43,16.51,0.45,24.22-2.32c5.39-2.04,10.51-4.79,15.52-7.95c4.73-3.01,9.2-6.28,12.38-10.86
			c2.46-3.74,3.01-8.18-0.83-10.88c-8.11-5.14-23.04-0.94-31.76,2.01c-5.54,1.93-10.93,4.32-16.11,7.09
			C524.3,571.71,520.89,565.54,525.07,563.02L525.07,563.02z"/>
		<path class="st0" d="M462.69,465.02c6.01,1.51,11.54,0.13,17.24-0.29c4.29-0.44,12.73-1.26,17.01-1.64
			c21.69-1.99,46.39-4.14,68.06-5.7c48-3.62,96.91-5.7,145.05-5.86c8.62-0.06,17.1,0.72,25.73-0.84c2.9-0.52,5.68,1.42,6.2,4.32
			c0.76,3.77-3.01,7.18-6.68,6.09c-5.6-1.41-11.25-1.81-16.91-2.06c-50.92-2.48-102.21-0.56-153.01,3.41
			c-25.43,2.02-50.89,4.67-76.18,8.1c0,0-8.43,1.16-8.43,1.16c-5.59,0.93-11.33,0.98-16.59,4.01c-2.79,1.61-6.36,0.66-7.98-2.13
			C453.64,469.17,457.75,463.75,462.69,465.02L462.69,465.02z"/>
		<path class="st0" d="M605.34,463.92c2.87,1.92,5.83,3.49,8.81,5.18c8.76,4.81,17.17,10.22,25.48,15.72
			c5.55,3.63,11.03,7.34,16.48,11.09c4.77,3.26,11.47,8.23,16.53,10.91c1.82,0.98,2.51,3.25,1.53,5.07
			c-1.11,2.14-4.08,2.63-5.83,0.99c-10.04-8.62-21.05-15.81-31.79-23.44c-5.45-3.66-10.92-7.28-16.54-10.6
			c-5.58-3.21-11.15-6.82-17.44-8.36c-2.02-0.41-3.31-2.42-2.82-4.42C600.26,463.6,603.31,462.46,605.34,463.92L605.34,463.92z"/>
		<path class="st2" d="M384.82,357.79c3.05,3.59,7.74,4.72,11.94,6.33c4.16,1.53,8.32,3.08,12.47,4.65
			c11.09,4.18,26.16,10.08,37.19,14.42c28.75,11.42,57.58,23.36,85.78,36.04c16.25,7.12,31.93,15.38,48.62,21.7
			c1.93,0.73,2.9,2.89,2.17,4.82c-0.81,2.21-3.58,3.11-5.53,1.81c-3.73-2.39-7.57-4.58-11.43-6.72
			c-7.71-4.31-15.76-7.97-23.74-11.74c-10.57-4.87-22.67-10.28-33.26-14.9c-25-10.73-51.43-21.22-76.98-30.57
			c-11.56-4.15-25.94-9.22-37.53-13.1c-4.2-1.34-8.62-3.41-13.15-2.35c-3.46,0.83-6.94-1.31-7.76-4.77
			C372.08,356.75,380.48,352.62,384.82,357.79L384.82,357.79z"/>
		<path class="st2" d="M600.64,440.74c35.66-21.05,70.37-44.11,108.18-61.29c1.87-0.86,4.08-0.05,4.95,1.82
			c0.97,2.05-0.19,4.56-2.38,5.16c-9.74,2.86-19.25,6.69-28.58,10.91c-18.55,8.7-36.5,19-53.39,30.61
			c-8.39,5.86-16.74,11.99-24.38,18.79C600.86,450.15,596.08,443.77,600.64,440.74L600.64,440.74z"/>
		<circle class="st0" cx="754.96" cy="454.85" r="5.18"/>
		<circle class="st1" cx="913.96" cy="538.56" r="5.18"/>
		<circle class="st3" cx="406.16" cy="443.77" r="32.75"/>
		<path class="st1" d="M172.13,545.15c-0.02-0.16-0.06-0.07-0.08-0.06c-0.03,0.02-0.05,0.06-0.08,0.1
			c-0.77,1.48-0.58,3.45,0.25,4.85c0.88,1.53,2.68,2.49,4.85,3.04c3.35,0.81,7.58,0.52,11.15-0.11c6.65-1.38,12.95-4.1,19.38-6.77
			c15.63-6.75,30.83-14.36,46.41-21.36c10.51-4.68,21-9.27,32.16-12.37c8.3-2.23,22.66-5.08,25.54,6.32
			c3.63,15.38-11.9,47.43-19.67,61.23c0,0-0.27,0.47-0.27,0.47c-0.06,0.11,0.04-0.05,0.05-0.07c0.26-0.55,0.32-1.46,0-2.07
			c-0.59-1.3-2.32-1.63-3.43-0.84c-0.19,0.16,0.07-0.05,0.19-0.14l0.83-0.67c16.6-13.5,33.59-26.65,51.37-38.61
			c12.02-8.03,24.07-16.68,37.95-21.45c8.6-2.79,18.57-5.39,27.63-2.48c7.6,2.52,10.88,10.08,9.94,17.58
			c-1.49,12.02-8.21,22.13-13.48,32.53c-1.31,2.47-2.34,4.91-3.36,7.46c-1.15,3.07-2.26,5.95-2.26,8.93c0.02,0.43,0.1,0.78,0.16,0.9
			c0.07,0.13-0.02,0.01-0.02,0.02c1.06,0.24,2.26-0.09,3.66-0.53c1.22-0.44,2.57-0.92,3.7-1.44c7.56-3.36,14.08-8.58,20.64-13.63
			c7.57-5.78,16.14-12.54,26.26-13.93c7.66-1.02,15.2,1.18,17.56,9.27c1.01,3.46,1.01,6.63,0.98,9.95c0.01,3.84-0.44,7.4,0.65,10.48
			c0.9,2.41,7.77,0.36,9.76-0.17c17.61-4.83,33.52-13.44,50.13-21.31c14.93-6.97,31.63-14.58,46.78-21.03
			c10.6-4.44,21.11-9,32.12-12.36c11.2-3.45,23.24-4.22,34.91-2.84c15.77,1.74,32.92,8.88,34.04,27.14
			c0.59,9.1-3.01,18.33-5.57,26.55c-1.5,4.97-3.46,9.93-3.84,14.99c-0.06,0.98,0.08,1.76,0.17,1.88c0.04,0.07,0.01-0.05-0.09-0.17
			c-0.1-0.12-0.22-0.19-0.17-0.18c0.07,0.04,0.8,0.2,1.73,0.15c6.09-0.49,11.85-3.02,17.9-5.67c22.36-10.21,43.97-24.8,68.06-31.55
			c3.61-0.96,7.48-1.62,11.17-1.82c11.83-0.97,24.2-0.27,34.97,5.55c15.03,7.59,27.44,20.22,43.97,24.32
			c16.79,4.42,31.27-2.33,42.88-14.53c3.72-4.05,7.94-8.14,8.84-13.83c0.5-3.38,3.65-5.71,7.02-5.2c3.38,0.5,5.71,3.65,5.2,7.02
			c-0.3,2.01-1.54,3.65-3.21,4.55c-2.7,1.56-4.88,3.62-6.86,5.9c-5.79,6.75-12.35,13.08-20.13,17.47
			c-13.77,8.08-29.37,8.02-43.8,1.82c-7.79-3.16-15.55-8.51-22.57-13.11c-9.16-6.02-18.4-12.01-29.44-12.98
			c-6.49-0.68-13.65-0.31-20.29,0.59c-9.43,1.71-18.06,5.93-26.51,10.5c-15.03,8.2-28.92,18.17-44.41,25.75
			c-7.76,3.59-20.2,9.31-29.16,5.68c-3.95-1.59-6.45-5.9-6.6-9.94c-0.25-4.41,0.96-8.52,2.27-12.51c2.73-8.05,6.48-15.63,8.81-23.67
			c4.39-14.37-3.56-23.23-17.24-27.14c-7.84-2.26-16.23-2.83-24.36-2.31c-16.72,1.19-32.13,9.1-47.38,15.57
			c-15.44,7-30.74,14.57-45.83,22.26c-10.02,5.2-19.99,10.76-30.52,15.6c-6.57,3.02-13.43,5.81-20.46,7.86
			c-3.56,1.07-7.17,2.02-11.04,1.79c-6.98-0.36-10.97-5.56-11.54-12.07c-0.37-3.42-0.21-6.36-0.21-9.11
			c-0.09-2.78,0.22-6.42-1.46-8.48c-0.31-0.33-1.27-0.69-2-0.75c-1.87-0.23-3.81-0.13-5.68,0.26c-2.24,0.47-4.56,1.28-6.88,2.38
			c-7.12,3.34-14.35,8.58-21.33,12.89c-5.61,3.52-11.49,6.82-17.78,9.11c-2.5,0.83-4.46,1.61-7.43,1.61c-4-0.02-7.02-3.07-7.08-7.22
			c-0.06-5.75,2.28-10.72,4.31-15.71c3.99-8.66,9.64-17.76,12.55-26.69c3.46-10.46,2.46-18.93-10.6-17.85
			c-10.66,0.96-20.73,5.44-29.91,10.95c-14.09,8.9-27.93,19.18-41.29,29.2c-10.36,7.92-20.64,16.05-30.77,24.3
			c-0.08,0.06-1.04,0.86-1.91,1.24c-1.84,0.91-4.18,0.96-6.06,0.21c-4.31-1.63-6.38-7.15-3.87-11.16c0,0,0.27-0.45,0.27-0.45
			s0.54-0.91,0.54-0.91c3.22-5.42,6.37-10.9,9.45-16.38c5.2-9.66,10.73-19.49,13.01-30.27c0.67-4.21,1.44-10.03-3.44-11.48
			c-18.62-4.57-72.87,27.17-92.75,35.95c-11.69,5.36-27.03,12.98-39.78,6.79c-5.33-2.74-8.82-8.63-9.53-14.53
			C161.84,536.68,172.5,537.71,172.13,545.15L172.13,545.15z"/>
	</g>
	<rect x="288.02" y="637.5" class="st5" width="495.65" height="87.04"/>
	<text transform="matrix(1 0 0 1 343.707 678.3032)"><tspan x="0" y="0" class="st6 st7 st8">maldives beach</tspan><tspan x="88.13" y="46" class="st6 st7 st8">vacation</tspan></text>
</g>
</svg>
